<svg width="12" height="12" viewBox="0 0 12 12" fill="none" xmlns="http://www.w3.org/2000/svg">
<path fill-rule="evenodd" clip-rule="evenodd" d="M11.854 0.146001C11.9006 0.192447 11.9375 0.247622 11.9627 0.308367C11.9879 0.369113 12.0009 0.434234 12.0009 0.500001C12.0009 0.565768 11.9879 0.63089 11.9627 0.691635C11.9375 0.75238 11.9006 0.807556 11.854 0.854001L0.854021 11.854C0.760135 11.9479 0.632797 12.0006 0.500021 12.0006C0.367245 12.0006 0.239908 11.9479 0.146021 11.854C0.0521345 11.7601 -0.000610352 11.6328 -0.000610352 11.5C-0.000610352 11.3672 0.0521345 11.2399 0.146021 11.146L11.146 0.146001C11.1925 0.0994379 11.2476 0.0624951 11.3084 0.0372887C11.3691 0.0120822 11.4343 -0.000892639 11.5 -0.000892639C11.5658 -0.000892639 11.6309 0.0120822 11.6917 0.0372887C11.7524 0.0624951 11.8076 0.0994379 11.854 0.146001V0.146001Z" fill="black"/>
<path fill-rule="evenodd" clip-rule="evenodd" d="M0.146009 0.146001C0.0994455 0.192447 0.0625027 0.247622 0.0372963 0.308367C0.0120898 0.369113 -0.00088501 0.434234 -0.00088501 0.500001C-0.00088501 0.565768 0.0120898 0.63089 0.0372963 0.691635C0.0625027 0.75238 0.0994455 0.807556 0.146009 0.854001L11.146 11.854C11.2399 11.9479 11.3672 12.0006 11.5 12.0006C11.6328 12.0006 11.7601 11.9479 11.854 11.854C11.9479 11.7601 12.0006 11.6328 12.0006 11.5C12.0006 11.3672 11.9479 11.2399 11.854 11.146L0.854009 0.146001C0.807563 0.0994379 0.752388 0.0624951 0.691643 0.0372887C0.630897 0.0120822 0.565776 -0.000892639 0.500009 -0.000892639C0.434242 -0.000892639 0.36912 0.0120822 0.308375 0.0372887C0.24763 0.0624951 0.192454 0.0994379 0.146009 0.146001V0.146001Z" fill="black"/>
</svg>
