<svg width="17" height="21" viewBox="0 0 17 21" fill="none" xmlns="http://www.w3.org/2000/svg">
<path d="M14.4102 15.0117H13.2431C13.1634 15.0117 13.0887 15.0548 13.0389 15.1307C12.9227 15.305 12.7981 15.4731 12.667 15.6331C12.1306 16.2964 11.4952 16.825 10.796 17.1897C10.0716 17.5676 9.29301 17.7615 8.50664 17.7598C7.71143 17.7598 6.94112 17.567 6.21729 17.1897C5.51808 16.825 4.8827 16.2964 4.34629 15.6331C3.80892 14.9721 3.38044 14.1886 3.08457 13.326C2.77744 12.4318 2.62305 11.4823 2.62305 10.5C2.62305 9.51768 2.7791 8.56817 3.08457 7.67403C3.38008 6.81065 3.80508 6.0334 4.34629 5.3669C4.8875 4.70039 5.5167 4.17539 6.21729 3.81035C6.94112 3.43301 7.71143 3.24023 8.50664 3.24023C9.30186 3.24023 10.0722 3.43096 10.796 3.81035C11.4966 4.17539 12.1258 4.70039 12.667 5.3669C12.7981 5.52891 12.921 5.69707 13.0389 5.86934C13.0887 5.94522 13.165 5.98828 13.2431 5.98828H14.4102C14.5147 5.98828 14.5795 5.84473 14.5214 5.73604C13.248 3.2915 11.0201 1.67344 8.48838 1.68164C4.51065 1.69395 1.32149 5.68272 1.36133 10.5902C1.40117 15.4198 4.58535 19.3184 8.50664 19.3184C11.0317 19.3184 13.2497 17.7023 14.5214 15.264C14.5778 15.1553 14.5147 15.0117 14.4102 15.0117ZM15.886 10.3708L13.5303 8.07393C13.4423 7.98779 13.3145 8.06572 13.3145 8.20313V9.76172H8.10156C8.02852 9.76172 7.96875 9.83555 7.96875 9.92578V11.0742C7.96875 11.1645 8.02852 11.2383 8.10156 11.2383H13.3145V12.7969C13.3145 12.9343 13.4439 13.0122 13.5303 12.9261L15.886 10.6292C15.9019 10.6139 15.9147 10.5942 15.9236 10.5719C15.9324 10.5495 15.937 10.5249 15.937 10.5C15.937 10.4751 15.9324 10.4505 15.9236 10.4281C15.9147 10.4058 15.9019 10.3861 15.886 10.3708V10.3708Z" fill="#333333"/>
</svg>
