<svg width="24" height="22" viewBox="0 0 24 22" fill="none" xmlns="http://www.w3.org/2000/svg">
<path d="M11.074 1.633C11.394 0.789 12.605 0.789 12.926 1.633L14.996 7.367C15.0682 7.55379 15.1953 7.71428 15.3607 7.8273C15.526 7.94031 15.7217 8.00053 15.922 8H21.009C21.949 8 22.359 9.17 21.62 9.743L18 13C17.8378 13.1247 17.7193 13.2975 17.6614 13.4937C17.6036 13.6898 17.6094 13.8993 17.678 14.092L19 19.695C19.322 20.595 18.28 21.368 17.492 20.814L12.575 17.694C12.4066 17.5757 12.2058 17.5122 12 17.5122C11.7941 17.5122 11.5933 17.5757 11.425 17.694L6.50795 20.814C5.72095 21.368 4.67795 20.594 4.99995 19.695L6.32195 14.092C6.39053 13.8993 6.39631 13.6898 6.33846 13.4937C6.28061 13.2975 6.16211 13.1247 5.99995 13L2.37995 9.743C1.63995 9.17 2.05195 8 2.98995 8H8.07695C8.27725 8.00067 8.47302 7.9405 8.63837 7.82747C8.80372 7.71444 8.93086 7.55387 9.00295 7.367L11.073 1.633H11.074Z" stroke="#5996ab" stroke-width="2" stroke-linecap="round" stroke-linejoin="round"/>
</svg>
